<svg xmlns="http://www.w3.org/2000/svg" viewBox="0 0 100 100" role="img" aria-label="Avatar couple">
  <defs>
    <linearGradient id="gc" x1="0" y1="0" x2="0" y2="1">
      <stop offset="0" stop-color="#ffbf73"/>
      <stop offset="1" stop-color="#ff8200"/>
    </linearGradient>
  </defs>
  <rect width="100" height="100" fill="url(#gc)"/>
  <g fill="#ffffff">
    <!-- silhouette gauche (femme) -->
    <path d="M20 54 C16 40 21 28 36 28 C51 28 56 40 52 54 C50 47 47 44 43 43 C45 39 44 35 36 35 C28 35 27 39 29 43 C25 44 22 47 20 54 Z"/>
    <circle cx="36" cy="40" r="10"/>
    <path d="M14 92 C14 76 24 69 36 69 C44 69 51 72 55 78 L55 92 Z"/>
    <!-- silhouette droite (homme) -->
    <circle cx="66" cy="43" r="11"/>
    <path d="M45 92 C45 76 55 68 66 68 C78 68 88 76 88 92 Z"/>
  </g>
</svg>
